<svg width="80" height="80" viewBox="0 0 80 80" fill="none" xmlns="http://www.w3.org/2000/svg">
<g clip-path="url(#clip0_6_761)">
<rect width="80" height="80" fill="#1B5B16"/>
<path fill-rule="evenodd" clip-rule="evenodd" d="M21.4633 16.3521C25.2327 12.2513 30.659 7.04596 43.2789 8.15054C55.9126 9.25513 57.68 14.3501 61.0075 15.9103C64.3213 17.4567 67.3175 19.8868 68.9744 21.7784C70.6313 23.6562 69.1953 28.3645 69.8581 30.5185C70.5208 32.6862 67.8698 32.9071 68.146 33.349C68.4221 33.7908 66.4338 35.6686 67.3175 36.8975C68.2012 38.1125 68.5878 39.3828 68.8639 40.3217C69.1401 41.2606 66.4338 41.2054 66.6548 42.1995C66.8757 43.2074 66.4891 43.8702 66.5443 44.9748C66.5995 46.0794 65.8815 46.1898 65.4949 47.0183C65.0945 47.8605 62.0017 50.5115 64.1004 54.8332C66.2129 59.1549 65.2188 57.9261 67.0966 61.806C68.9744 65.6858 72.7438 63.5733 65.8815 79.9626C59.0055 96.352 55.029 96.1311 51.7014 106.1C48.3738 116.069 49.2713 129.131 53.2478 145.52C57.2381 161.909 60.1239 170.774 63.4376 172.983C66.7652 175.206 69.5819 175.924 72.302 175.869C75.0082 175.813 76.2923 174.156 78.6119 175.592C80.9316 177.028 83.0993 178.243 85.6951 178.699C88.3047 179.141 89.1884 178.644 88.9675 179.914C88.7465 181.184 85.6399 182.068 85.6399 182.068C85.6399 182.068 85.8056 183.849 84.1487 183.725C82.4918 183.615 80.3793 181.958 79.7165 182.289C79.0538 182.62 79.6061 183.338 78.0044 183.449C76.4028 183.559 75.3396 182.786 74.5664 182.676C73.7932 182.565 73.8484 182.068 71.7497 182.786C69.6372 183.504 64.0452 184.236 64.0452 184.236C64.0452 184.236 65.274 185.838 66.9309 188.378C68.5878 190.932 70.0238 191.319 68.4773 191.706C66.9309 192.092 64.0452 191.319 64.3765 191.816C64.7079 192.313 66.9309 195.806 65.5502 197.298C64.1556 198.789 62.8301 198.734 61.6151 197.187C60.4 195.641 61.0076 192.258 59.2264 190.877C57.4591 189.496 56.5202 188.765 56.6306 189.041C56.7411 189.317 56.7411 195.365 58.3427 197.408C59.9582 199.452 61.3389 201.067 59.9582 202.006C58.5636 202.945 56.8515 202.613 55.9126 201.288C54.9737 199.949 51.3148 190.656 51.6462 191.54C51.9775 192.424 54.311 198.568 53.1374 199.286C51.9775 200.004 50.2654 199.286 49.7131 197.739C49.1608 196.193 48.0424 190.325 46.6065 189.206C45.1705 188.102 42.1743 187.55 40.7383 187.771C39.3024 187.991 35.9196 188.489 33.2133 186.942C30.4933 185.396 28.3946 183.615 28.3946 183.615C28.3946 183.615 28.3946 177.084 25.7297 172.32C23.0787 167.57 11.4529 147.743 11.4529 147.743C11.4529 147.743 4.13501 167.004 4.35593 169.669C4.57685 172.32 7.40736 173.038 12.0604 173.549C16.7135 174.046 20.2482 172.431 23.134 175.04C26.0059 177.636 29.0573 183.835 27.6213 184.512C26.1716 185.175 24.9565 183.725 24.1281 184.056C23.2996 184.402 23.4101 185.782 21.4633 185.009C19.5302 184.236 17.8733 182.731 17.4315 182.62C16.9897 182.51 13.1098 181.516 10.3345 183.062C7.57305 184.622 3.9141 185.396 2.0363 183.504C0.158499 181.626 0.821251 181.295 -2.06449 181.295C-4.93642 181.295 -8.15354 182.179 -8.48491 179.969C-8.81629 177.746 -5.8339 157.933 -5.8339 157.933C-5.8339 157.933 -15.5681 168.233 -23.1069 170.663C-30.6319 173.093 -34.1804 170.884 -36.8314 171.989C-39.4962 173.093 -42.81 173.659 -40.9322 174.874C-39.0544 176.09 -35.7268 178.299 -31.847 178.188C-27.9809 178.078 -25.6475 178.851 -22.886 178.961C-20.1107 179.086 -15.8995 181.074 -15.5681 183.173C-15.2367 185.285 -15.8995 186.721 -18.7852 185.837C-21.6571 184.954 -24.6533 184.498 -24.6533 185.175C-24.6533 185.837 -23.2174 188.047 -25.0952 188.378C-26.973 188.709 -28.975 187.936 -28.975 187.936C-28.975 187.936 -30.0796 189.938 -32.0679 189.151C-34.07 188.378 -34.6222 187.826 -35.1745 187.936C-35.7268 188.047 -36.8314 189.593 -39.0544 188.599C-41.2636 187.605 -40.9322 187.273 -42.5891 187.273C-44.2598 187.273 -48.1258 188.599 -51.7848 187.163C-55.4437 185.727 -59.6412 185.285 -59.3098 180.964C-58.9784 176.642 -59.1993 169.227 -59.7516 169.227C-60.3177 169.227 -56.9902 169.78 -75.5887 178.188C-94.201 186.611 -104.612 187.494 -115.023 181.295C-125.419 175.095 -132.296 166.231 -146.02 170.663C-159.758 175.095 -165.958 184.609 -170.611 183.504C-175.264 182.399 -173.041 175.316 -164.632 169.559C-156.21 163.801 -140.483 156.041 -130.514 159.369C-120.559 162.683 -115.243 172.21 -98.4123 174.433C-81.5673 176.642 -62.7478 159.811 -62.7478 159.811C-62.7478 159.811 -64.2943 145.851 -59.6412 129.02C-55.0019 112.189 -33.2967 84.7262 -20.2212 73.4318C-7.15941 62.1373 0.600333 60.4804 0.821251 59.1411C1.04217 57.8156 10.445 47.184 13.2203 42.31C15.9817 37.436 14.4353 36.8837 14.3249 34.8954C14.2144 32.9071 13.2203 34.1222 15.6504 26.6938C18.0943 19.2793 21.4633 16.3521 21.4633 16.3521ZM27.6213 117.726C27.6213 117.726 26.1716 111.968 24.1833 116.179C22.195 120.391 21.5185 124.367 25.7297 133.673C29.941 142.979 42.6714 175.869 44.563 177.525C46.4408 179.182 52.4194 179.293 52.9717 179.403C53.524 179.514 53.8553 179.072 50.7625 176.531C47.6558 173.977 46.4408 168.661 40.2413 156.704C34.0418 144.747 27.8423 121.716 27.6213 117.726Z" fill="#CECAC2"/>
<path fill-rule="evenodd" clip-rule="evenodd" d="M65.2878 57.4152C65.4259 57.7742 65.5364 58.0504 65.6192 58.3127C65.4949 58.0089 65.3845 57.7052 65.2878 57.4152ZM65.992 59.3621C66.1991 59.9005 66.5167 60.6047 67.0966 61.806C68.9744 65.6858 72.7438 63.5733 65.8815 79.9626C59.0055 96.352 55.029 96.1311 51.7014 106.1C48.3738 116.069 49.2713 129.131 53.2478 145.52C57.2381 161.909 60.1239 170.774 63.4376 172.983C66.7652 175.206 69.5819 175.924 72.302 175.869C75.0082 175.813 76.2923 174.156 78.6119 175.592C80.9316 177.028 83.0993 178.243 85.6951 178.699C88.3047 179.141 89.1884 178.644 88.9675 179.914C88.7465 181.184 85.6399 182.068 85.6399 182.068C85.6399 182.068 85.8056 183.849 84.1487 183.725C82.4918 183.615 80.3793 181.958 79.7165 182.289C79.0538 182.62 79.6061 183.338 78.0044 183.449C76.4028 183.559 75.3396 182.786 74.5664 182.676C73.7932 182.565 73.8484 182.068 71.7497 182.786C69.6372 183.504 64.0452 184.236 64.0452 184.236C64.0452 184.236 65.1636 185.713 66.7238 188.074C61.7393 187.467 56.6168 186.445 53.4411 184.926C49.9893 183.283 48.1529 180.756 47.1864 178.671C49.6165 179.251 52.5989 179.334 52.9717 179.403C53.524 179.514 53.8553 179.072 50.7625 176.531C50.7211 176.49 50.6796 176.462 50.6382 176.421C55.8022 177.788 63.1477 179.362 63.6309 178.395C64.2937 177.07 60.1929 176.076 53.1097 159.465C46.0128 142.855 48.8985 101.875 45.7918 104.319C42.699 106.749 41.1388 109.193 33.6137 110.077C26.0887 110.96 18.1081 107.854 21.6566 107.412C25.2051 106.97 36.7204 104.098 42.9199 99.2239C49.1194 94.3499 56.6444 91.2433 61.5184 80.8325C66.061 71.1397 67.4832 64.2499 65.992 59.3621Z" fill="#2B261A"/>
<path fill-rule="evenodd" clip-rule="evenodd" d="M21.9189 15.8689C25.6607 11.8647 31.1423 7.0874 43.2789 8.15057C55.0842 9.18612 57.4039 13.7011 60.3724 15.5513C57.321 15.4823 55.9817 18.9065 52.2261 18.5751C48.4567 18.2437 44.5768 15.8137 36.4995 17.8019C28.4084 19.804 24.5423 22.1236 23.203 18.5751C22.8578 17.6638 22.3608 16.7664 21.9189 15.8689Z" fill="#3C3832"/>
<path fill-rule="evenodd" clip-rule="evenodd" d="M54.4077 22.9934C54.5181 26.0863 47.4211 35.7238 47.2002 39.1619C46.9793 42.5861 49.9755 42.3652 48.9814 46.3555C47.9734 50.3458 43.0442 60.2457 36.4581 61.1984C29.872 62.1373 28.4912 58.865 26.8344 56.7662C25.2051 54.709 27.221 53.6596 25.3708 47.1839C25.2603 46.7835 24.7771 45.2233 22.7888 42.9175C20.2897 40.0317 21.6014 32.2444 19.1851 29.0273C17.8596 27.2461 17.4177 24.3742 18.4671 24.8712C19.5165 25.3683 21.9604 23.3248 23.3963 21.7094C24.8323 20.1077 28.3808 22.7725 32.7025 22.7725C37.0104 22.7725 41.6635 18.8927 46.0956 19.8868C50.5278 20.8809 54.4077 22.9934 54.4077 22.9934Z" fill="#C9A7A7"/>
<path fill-rule="evenodd" clip-rule="evenodd" d="M37.0103 32.562C38.4049 34.0118 41.8843 38.2644 44.2178 37.0494C46.5374 35.8343 51.8533 30.8499 50.6934 29.0825C49.5336 27.3014 49.3679 25.755 45.3224 25.3684C41.2768 24.9818 37.466 24.0981 36.4581 26.5834C35.4639 29.0825 37.0103 32.562 37.0103 32.562Z" fill="#D8A8A8"/>
<path fill-rule="evenodd" clip-rule="evenodd" d="M32.6472 27.6327C32.1502 30.4632 32.0397 33.7908 29.2644 36.718C26.4891 39.6589 24.7218 39.6037 23.0097 36.3314C21.2976 33.059 19.1298 29.8005 21.408 27.3566C23.6724 24.9265 25.6607 24.319 28.1046 25.0369C30.5347 25.7549 32.6472 27.6327 32.6472 27.6327Z" fill="#D8A8A8"/>
<path fill-rule="evenodd" clip-rule="evenodd" d="M47.5177 41.1501C47.7386 41.661 48.0424 42.0614 48.3323 42.4756C48.6361 43.0417 48.9122 43.6216 49.1194 44.2016C49.216 44.7677 49.3127 44.9886 48.9813 46.3555C48.6361 47.7086 47.4487 51.7818 44.4801 55.3855C44.2454 52.9002 43.9968 49.2136 41.8291 46.7973C39.6751 44.381 38.1287 42.1443 36.5132 42.8622C34.9116 43.5802 32.0949 44.9748 30.866 44.9748C29.651 44.9748 28.933 43.6354 27.7179 44.0773C27.138 44.2982 26.2268 45.748 25.3707 47.1839C25.3569 47.1701 23.4929 43.8564 23.3824 43.6493C24.4594 42.9175 27.1518 41.73 29.4301 37.7673C31.7083 33.8184 33.4756 29.3586 32.6472 27.6327C30.2723 22.7449 35.2292 27.1356 35.0497 29.9524C35.1325 33.059 36.1404 40.9982 41.0559 39.3276C43.8864 38.361 44.3834 37.6016 45.3776 38.5405C45.9299 39.0652 46.7445 40.0179 47.5177 41.1501Z" fill="#C79A9A"/>
<path fill-rule="evenodd" clip-rule="evenodd" d="M42.5333 32.2858C40.9731 32.2858 39.689 31.0984 39.689 29.6348C39.689 28.1712 40.9731 26.97 42.5333 26.97C44.1074 26.97 45.3914 28.1712 45.3914 29.6348C45.3914 31.0984 44.1074 32.2858 42.5333 32.2858Z" fill="#2C2C2F"/>
<path fill-rule="evenodd" clip-rule="evenodd" d="M28.0079 32.4515C26.4201 32.4515 25.1222 31.1812 25.1222 29.6072C25.1222 28.0332 26.4201 26.7491 28.0079 26.7491C29.5958 26.7491 30.8799 28.0332 30.8799 29.6072C30.8799 31.1812 29.5958 32.4515 28.0079 32.4515Z" fill="#2C2C2F"/>
<path fill-rule="evenodd" clip-rule="evenodd" d="M33.3514 42.4481C34.456 41.8129 35.8643 41.1778 36.0024 41.7025C36.1405 42.2272 34.3731 42.7795 34.0694 43.3041C33.7656 43.8288 32.9924 43.9393 32.8267 43.4698C32.661 43.0004 33.4757 42.379 33.4757 42.379L33.3514 42.4481Z" fill="#2C2C2F"/>
<path fill-rule="evenodd" clip-rule="evenodd" d="M30.1619 43.2764C29.7339 42.9451 29.0435 42.089 28.7536 42.1304C28.4636 42.1718 28.3394 42.448 28.8502 43.0141C29.3611 43.5802 29.3749 44.4362 29.8444 44.1463C30.3138 43.8701 30.1619 43.2764 30.1619 43.2764Z" fill="#2C2C2F"/>
<path fill-rule="evenodd" clip-rule="evenodd" d="M26.7101 52.845C28.726 52.6517 34.8841 53.7563 42.3538 51.9337C42.5748 51.8785 36.7757 54.2395 26.7101 52.845Z" fill="#3D3939"/>
<path fill-rule="evenodd" clip-rule="evenodd" d="M30.7418 68.2402C31.3079 68.3507 37.0655 69.3448 42.7127 67.467C53.5653 63.8494 58.2184 51.5747 58.2184 52.6241C58.2184 54.2809 55.3327 63.5871 53.7863 67.6879C52.226 71.7749 55.1118 72.2305 56.2163 75.3234C57.3209 78.43 59.5439 76.3175 53.5653 82.7379C47.5867 89.1722 50.4034 88.109 42.8784 93.2039C35.3396 98.2988 24.487 107.384 25.7159 102.179C26.9309 96.9733 31.6945 85.8998 29.8029 83.4697C27.9251 81.0258 22.6092 77.6016 25.0393 77.0355C27.4832 76.4832 29.6924 72.9485 27.7041 70.9464C25.7159 68.9582 24.9289 67.3013 26.1577 67.3013C27.3728 67.3013 30.7418 68.2402 30.7418 68.2402Z" fill="#C0B5A4"/>
<path fill-rule="evenodd" clip-rule="evenodd" d="M26.8067 58.5197C27.1933 58.7959 31.9017 63.3385 36.4995 62.2892C50.4173 59.0997 51.6324 41.3296 52.1156 40.8049C51.4529 66.9699 29.582 67.315 26.8067 58.5197Z" fill="#BDB9B3"/>
<path fill-rule="evenodd" clip-rule="evenodd" d="M52.3365 31.554C54.4905 27.5637 58.039 24.6917 60.2481 24.4156C62.4711 24.1395 66.282 22.8554 64.7355 24.8022C63.1891 26.7352 61.477 28.834 61.9188 29.1239C62.3607 29.4001 63.41 28.116 63.1339 30.1733C62.8577 32.2168 61.6427 32.4929 61.2561 34.4812C60.8557 36.4832 64.4594 35.9862 61.4218 38.6372C58.3703 41.302 53.2202 40.087 51.5633 41.2468C49.8926 42.4066 48.4014 41.7991 49.3956 38.9133C50.3897 36.0414 52.3365 31.554 52.3365 31.554Z" fill="#C0B5A4"/>
<path fill-rule="evenodd" clip-rule="evenodd" d="M41.553 30.1043C40.9454 30.1043 40.4346 29.621 40.4346 29.0411C40.4346 28.4612 40.9454 27.9918 41.553 27.9918C42.1605 27.9918 42.6576 28.4612 42.6576 29.0411C42.6576 29.621 42.1605 30.1043 41.553 30.1043Z" fill="#E6E6E8"/>
<path fill-rule="evenodd" clip-rule="evenodd" d="M26.5857 29.911C25.9782 29.911 25.4812 29.4416 25.4812 28.8616C25.4812 28.2817 25.9782 27.8123 26.5857 27.8123C27.1933 27.8123 27.6903 28.2817 27.6903 28.8616C27.6903 29.4416 27.1933 29.911 26.5857 29.911Z" fill="#E6E6E8"/>
<path d="M66.061 56.1312C66.061 56.1312 64.7217 53.632 62.333 51.3262C59.9444 49.0204 57.4176 47.7777 57.4176 47.7777C57.4176 47.7777 58.7569 50.263 61.1456 52.5689C63.5205 54.8747 66.061 56.1312 66.061 56.1312Z" fill="#CECAC2"/>
<path d="M67.2899 57.0977C67.2899 57.0977 67.1932 56.283 66.779 55.0404C66.3786 53.8115 65.6054 52.1408 64.3489 50.5806C63.0786 49.0204 61.6013 47.9296 60.4829 47.2806C59.9168 46.9492 59.4335 46.7145 59.1021 46.5764C58.7846 46.4384 58.5774 46.3555 58.5774 46.3555C58.5774 46.3555 59.2126 47.1149 59.9306 47.9296C60.7452 48.8961 61.836 50.2216 63.0096 51.6576C64.1832 53.1211 65.2602 54.4466 66.0196 55.4546C66.6824 56.3106 67.2899 57.0977 67.2899 57.0977Z" fill="#CECAC2"/>
<path d="M66.848 54.5571C66.848 54.5571 65.9644 52.1684 64.0589 49.8902C62.1535 47.612 59.9443 46.3279 59.9443 46.3279C59.9443 46.3279 60.828 48.7304 62.7334 50.9948C64.6388 53.273 66.848 54.5571 66.848 54.5571Z" fill="#CECAC2"/>
<path d="M66.848 54.0462C66.848 54.0462 66.13 51.3952 64.3489 48.7028C62.5677 46.0242 60.4 44.312 60.4 44.312C60.4 44.312 61.1318 46.9631 62.9129 49.6555C64.6941 52.3479 66.848 54.0462 66.848 54.0462Z" fill="#CECAC2"/>
<path d="M67.0827 52.4584C67.0827 52.4584 66.42 49.766 64.6941 47.0183C62.9681 44.2707 60.828 42.5033 60.828 42.5033C60.828 42.5033 61.5046 45.182 63.2305 47.9296C64.9564 50.6911 67.0827 52.4584 67.0827 52.4584Z" fill="#CECAC2"/>
<path d="M66.0196 49.3794C66.0196 49.3794 65.6468 46.9493 64.2523 44.4639C62.8715 41.9924 60.9937 40.4046 60.9937 40.4046C60.9937 40.4046 61.3665 42.8347 62.7611 45.3062C64.1418 47.7915 66.0196 49.3794 66.0196 49.3794Z" fill="#CECAC2"/>
<path d="M66.1715 48.758C66.1715 48.758 66.2129 48.04 66.061 46.9216C65.9091 45.8032 65.5225 44.2706 64.7079 42.7518C63.8933 41.233 62.8301 40.0594 61.974 39.3138C61.118 38.5544 60.5105 38.2092 60.5105 38.2092C60.5105 38.2092 60.8142 38.8581 61.2975 39.8384C61.7807 40.8188 62.4297 42.1443 63.1891 43.5664C63.9485 44.9748 64.6941 46.2451 65.2464 47.1978C65.7987 48.1505 66.1715 48.758 66.1715 48.758Z" fill="#CECAC2"/>
<path d="M67.0827 47.8881C67.0827 47.8881 66.8066 45.1681 65.4949 42.2547C64.1832 39.3276 62.3468 37.3255 62.3468 37.3255C62.3468 37.3255 62.623 40.0317 63.9347 42.9589C65.2325 45.8723 67.0827 47.8881 67.0827 47.8881Z" fill="#CECAC2"/>
<path d="M67.4556 46.6041C67.4556 46.6041 67.5661 45.9413 67.497 44.8644C67.4418 43.7874 67.1933 42.2962 66.5029 40.7912C65.8263 39.3 64.8598 38.1264 64.0866 37.3808C63.2996 36.6214 62.7335 36.2762 62.7335 36.2762C62.7335 36.2762 62.982 36.9113 63.3824 37.864C63.7828 38.8305 64.3075 40.1284 64.9427 41.5092C65.5778 42.9037 66.1991 44.1464 66.6686 45.0853C67.138 46.0104 67.4556 46.6041 67.4556 46.6041Z" fill="#CECAC2"/>
<path d="M68.4221 44.6434C68.4221 44.6434 68.0355 42.0752 66.5995 39.3966C65.1774 36.718 63.2719 34.9506 63.2719 34.9506C63.2719 34.9506 63.6585 37.5326 65.0807 40.2112C66.5167 42.876 68.4221 44.6434 68.4221 44.6434Z" fill="#CECAC2"/>
<path d="M69.3058 43.3869C69.3058 43.3869 69.292 42.7242 69.0573 41.6748C68.8225 40.6393 68.3255 39.2309 67.4004 37.8916C66.4891 36.5523 65.3569 35.572 64.4732 34.9782C63.5895 34.3707 62.9682 34.1222 62.9682 34.1222C62.9682 34.1222 63.3134 34.7021 63.8519 35.572C64.4042 36.4418 65.136 37.6155 65.9782 38.8581C66.8343 40.1146 67.6627 41.2192 68.2702 42.0476C68.8916 42.8623 69.3058 43.3869 69.3058 43.3869Z" fill="#CECAC2"/>
<path d="M69.6509 40.6669C69.6509 40.6669 69.6509 39.9904 69.4162 38.941C69.1815 37.8916 68.6706 36.4557 67.7041 35.1302C66.4338 33.3352 64.7631 32.2997 63.8518 31.8578L63.3962 31.6369L63.4652 32.0235C63.5757 32.5344 63.6585 32.8381 63.6585 32.8381C63.6585 32.8381 63.769 32.5482 63.9209 32.0373L63.5481 32.203C64.4593 33.4871 65.6192 35.144 66.3095 36.1243C67.2899 37.4636 69.6509 40.6669 69.6509 40.6669Z" fill="#CECAC2"/>
<path d="M70.6865 36.939C70.6865 36.939 69.8719 34.8264 68.1045 32.9624C66.3234 31.0846 64.2661 30.1595 64.2661 30.1595C64.2661 30.1595 65.0807 32.2583 66.848 34.1361C68.6292 36.0139 70.6865 36.939 70.6865 36.939Z" fill="#CECAC2"/>
<path d="M71.8325 34.4397C71.8325 34.4397 71.7497 34.2879 71.6116 34.0531C71.4597 33.8046 71.2112 33.4732 70.8522 33.1004C70.1342 32.341 68.8916 31.4712 67.3037 31.126C65.7159 30.7946 64.2247 31.0707 63.272 31.4573C62.7887 31.6506 62.4021 31.8578 62.1812 32.0234C61.9603 32.1753 61.8222 32.272 61.8222 32.272C61.8222 32.272 62.0017 32.272 62.264 32.272C62.554 32.2582 62.9406 32.2858 63.41 32.2996C64.3765 32.3548 65.6192 32.5343 66.9447 32.8105C68.2702 33.1004 69.4715 33.4594 70.3689 33.8046C70.8108 33.9841 71.1836 34.136 71.4321 34.2602C71.6806 34.3707 71.8325 34.4397 71.8325 34.4397Z" fill="#CECAC2"/>
<path d="M71.7773 32.8657C71.7773 32.8657 71.6807 32.3825 71.2664 31.7059C70.866 31.0432 70.1066 30.2009 69.002 29.7039C67.8974 29.2068 66.7652 29.1792 65.992 29.3172C65.6054 29.3863 65.3017 29.4829 65.1084 29.5658C64.9151 29.6486 64.7908 29.7039 64.7908 29.7039C64.7908 29.7039 65.3431 29.9386 65.9092 30.1733C66.9171 30.6428 67.8008 31.0432 68.2979 31.2641C68.7811 31.485 69.6786 31.8854 70.6865 32.3411C71.2388 32.6172 71.7773 32.8657 71.7773 32.8657Z" fill="#CECAC2"/>
<path d="M72.3571 31.485C72.3571 31.485 72.2881 31.347 72.1777 31.1399C72.0396 30.9189 71.8325 30.6152 71.5287 30.2838C70.9212 29.6072 69.858 28.8064 68.4773 28.475C67.0965 28.1437 65.7848 28.3646 64.9426 28.6821C64.5146 28.8478 64.1832 29.0273 63.9761 29.1654C63.7828 29.2897 63.6585 29.3863 63.6585 29.3863C63.6585 29.3863 63.8104 29.4001 64.0451 29.4277C64.2936 29.4415 64.6388 29.483 65.0531 29.5382C65.8815 29.6487 66.9447 29.8696 68.0769 30.1457C69.2091 30.4219 70.2584 30.7118 71.0454 30.988C71.8325 31.2641 72.3571 31.485 72.3571 31.485Z" fill="#CECAC2"/>
<path d="M71.3078 29.3034C71.3078 29.3034 71.1007 28.8201 70.5484 28.1988C70.0099 27.5913 69.071 26.8595 67.8422 26.5281C66.6133 26.1968 65.4259 26.3348 64.6527 26.5834C64.2523 26.7076 63.9485 26.8457 63.7552 26.97C63.5619 27.0666 63.4376 27.1495 63.4376 27.1495C63.4376 27.1495 64.0452 27.2875 64.6803 27.4532C65.4259 27.6327 66.3648 27.9089 67.3865 28.185C68.3945 28.4612 69.3472 28.7097 70.079 28.9306C70.7003 29.1101 71.3078 29.3034 71.3078 29.3034Z" fill="#CECAC2"/>
<path d="M71.8049 29.3311C71.8049 29.3311 71.6254 28.7649 71.0869 27.9641C70.5622 27.1633 69.6371 26.1554 68.3531 25.4236C67.069 24.7056 65.7159 24.4571 64.7631 24.4294C64.2799 24.4018 63.8933 24.4294 63.6309 24.4571C63.3824 24.4985 63.2167 24.5261 63.2167 24.5261C63.2167 24.5261 63.8657 24.8851 64.5422 25.2579C65.7297 25.9206 66.8066 26.5282 67.5108 26.9286C68.2288 27.329 69.3058 27.9227 70.4932 28.5855C71.1698 28.9721 71.8049 29.3311 71.8049 29.3311Z" fill="#CECAC2"/>
<path d="M72.8818 27.9917C72.8818 27.9917 72.799 27.826 72.6747 27.5637C72.5367 27.2875 72.3157 26.9009 71.9844 26.4591C71.3354 25.5616 70.2032 24.4432 68.643 23.7252C67.0827 22.9934 65.4949 22.8416 64.3903 22.9244C63.838 22.9658 63.3962 23.0349 63.1062 23.1177C62.8163 23.1868 62.6368 23.2282 62.6368 23.2282C62.6368 23.2282 62.8163 23.2972 63.0924 23.3801C63.3962 23.4629 63.7966 23.601 64.2798 23.7805C65.274 24.1257 66.5443 24.6503 67.9112 25.2855C69.2781 25.9206 70.507 26.5557 71.4044 27.0942C71.8463 27.3566 72.2191 27.5775 72.4814 27.7432C72.7161 27.8951 72.8818 27.9917 72.8818 27.9917Z" fill="#CECAC2"/>
<path d="M72.3434 26.9009C72.3434 26.9009 72.2743 26.7076 72.1501 26.4039C72.012 26.0725 71.7634 25.6306 71.4183 25.106C70.7141 24.0566 69.4162 22.7449 67.6074 21.9441C65.7987 21.1295 63.9623 21.0328 62.7058 21.2123C62.0845 21.2951 61.5736 21.4056 61.256 21.5299C60.9385 21.6403 60.7452 21.7094 60.7452 21.7094C60.7452 21.7094 60.9523 21.737 61.2698 21.7922C61.6288 21.8336 62.0983 21.9303 62.6782 22.0684C63.838 22.3307 65.3292 22.8139 66.9033 23.5043C68.4635 24.2085 69.8304 25.0093 70.7969 25.6997C71.2802 26.0449 71.6668 26.3486 71.9291 26.5696C72.1777 26.7767 72.3434 26.9009 72.3434 26.9009Z" fill="#CECAC2"/>
<path d="M71.294 25.534C71.294 25.534 71.1974 25.3269 71.0317 25.0093C70.866 24.6641 70.576 24.1947 70.1618 23.6286C69.361 22.524 67.9526 21.1294 66.0334 20.1767C64.128 19.224 62.1673 18.9479 60.8004 18.9755C60.11 18.9755 59.5439 19.0307 59.1711 19.1136C58.826 19.1826 58.5912 19.224 58.5912 19.224C58.5912 19.224 58.8122 19.2792 59.1573 19.3759C59.5439 19.4725 60.041 19.6244 60.6623 19.8177C61.9188 20.2181 63.5481 20.8671 65.274 21.7231C66.9861 22.5792 68.4911 23.4905 69.5681 24.2499C70.0928 24.6227 70.5346 24.9403 70.8246 25.175C71.1145 25.3959 71.294 25.534 71.294 25.534Z" fill="#CECAC2"/>
<path d="M70.4794 24.7332C70.4794 24.7332 70.3689 24.5261 70.2033 24.1947C70.0238 23.8495 69.7338 23.3801 69.3334 22.814C68.5326 21.6956 67.1932 20.2596 65.3707 19.1412C63.5481 18.0228 61.6565 17.4843 60.2896 17.291C59.613 17.1806 59.0469 17.1391 58.6603 17.1391C58.3013 17.1391 58.0666 17.1391 58.0666 17.1391C58.0666 17.1391 58.9917 17.5948 60.0272 18.1056C61.2285 18.7132 62.7887 19.583 64.4732 20.6048C66.1439 21.6403 67.6489 22.6345 68.7259 23.4215C69.651 24.1118 70.4794 24.7332 70.4794 24.7332Z" fill="#CECAC2"/>
<path d="M69.7062 21.7094C69.7062 21.7094 69.5819 21.5299 69.3886 21.2537C69.1815 20.9638 68.8501 20.5634 68.3945 20.0939C67.5108 19.155 66.0886 18.009 64.2523 17.222C62.4297 16.435 60.6071 16.2002 59.323 16.2002C58.6741 16.2002 58.1494 16.2416 57.7904 16.2831C57.459 16.3383 57.2381 16.3659 57.2381 16.3659C57.2381 16.3659 58.1632 16.6973 59.1712 17.0425C60.3448 17.4705 61.905 18.0918 63.5757 18.8098C65.2602 19.5278 66.779 20.2182 67.8836 20.7843C68.8363 21.2675 69.7062 21.7094 69.7062 21.7094Z" fill="#CECAC2"/>
<path d="M69.1538 20.66C69.1538 20.66 69.0434 20.4667 68.8777 20.1768C68.6844 19.8454 68.3806 19.4174 67.9388 18.9203C67.0689 17.9262 65.5777 16.7249 63.6171 16.0622C61.6564 15.3994 59.751 15.4408 58.4531 15.7032C57.8042 15.8274 57.2795 15.9793 56.9481 16.1174C56.6306 16.2555 56.4234 16.3383 56.4234 16.3383C56.4234 16.3383 56.6444 16.3521 56.9896 16.3935C57.3624 16.4073 57.8594 16.4764 58.4807 16.5592C59.7096 16.7387 61.3389 17.1115 63.0648 17.6914C64.7907 18.2713 66.3095 18.9755 67.4003 19.583C67.9388 19.8868 68.3806 20.1629 68.6844 20.3563C68.9743 20.5357 69.1538 20.66 69.1538 20.66Z" fill="#CECAC2"/>
<path d="M68.6292 61.4194C68.6292 61.4194 68.5188 60.6185 68.1321 59.4035C67.7317 58.1746 66.9861 56.5316 65.7711 54.9713C64.556 53.4249 63.1339 52.3065 62.0431 51.6299C60.9385 50.9396 60.2067 50.6634 60.2067 50.6634C60.2067 50.6634 63.0234 54.2533 64.418 56.0345C65.8125 57.8156 68.6292 61.4194 68.6292 61.4194Z" fill="#CECAC2"/>
<path d="M67.8698 61.6265C67.8698 61.6265 67.0828 59.3207 65.3016 57.1668C63.5067 54.999 61.3942 53.7978 61.3942 53.7978C61.3942 53.7978 62.1812 56.1036 63.9761 58.2575C65.7573 60.4253 67.8698 61.6265 67.8698 61.6265Z" fill="#CECAC2"/>
<path d="M67.1794 62.1235C67.1794 62.1235 66.9999 60.1214 65.8539 58.2022C64.7217 56.2692 63.0648 55.1508 63.0648 55.1508C63.0648 55.1508 63.2443 57.139 64.3765 59.0721C65.5088 60.9913 67.1794 62.1235 67.1794 62.1235Z" fill="#CECAC2"/>
<path d="M14.5595 26.3349C14.5595 26.3349 14.5319 26.4039 14.4353 26.4315C14.3524 26.4729 14.1453 26.3763 14.2144 26.3211V26.4591C14.8357 25.6445 16.0784 24.1257 17.5143 22.455C18.5223 21.2538 19.4612 20.1492 20.1791 19.3483C20.8005 18.658 21.3666 18.0228 21.3666 18.0228C21.3666 18.0228 20.69 18.1609 19.6683 18.658C18.6603 19.1412 17.321 20.0249 16.2026 21.3504C14.6148 23.2006 14.0349 25.2993 13.8692 26.3072L13.8554 26.4177L13.8692 26.4315C13.9658 26.6248 14.1591 26.6524 14.2558 26.6386C14.3662 26.6248 14.4353 26.5696 14.4905 26.5282C14.5872 26.4039 14.5457 26.3349 14.5595 26.3349Z" fill="#CECAC2"/>
<path d="M13.7311 27.9641C13.7311 27.9641 14.2006 27.3152 14.7114 26.6386C15.3052 25.8378 16.1336 24.8299 17.0725 23.7529C18.0252 22.6897 18.9089 21.7232 19.6269 21.0328C20.2482 20.4391 20.8143 19.9006 20.8143 19.9006C20.8143 19.9006 20.6486 19.9282 20.3725 19.9697C20.0963 20.0111 19.6683 20.1216 19.1712 20.301C18.1771 20.66 16.8654 21.3918 15.7884 22.6207C14.7114 23.8495 14.1453 25.2441 13.9244 26.2796C13.814 26.7905 13.7587 27.2185 13.7449 27.5085C13.7449 27.7846 13.7311 27.9641 13.7311 27.9641Z" fill="#CECAC2"/>
<path d="M14.3524 28.8754C14.3524 28.8754 16.2579 27.7708 17.7767 25.7688C19.2817 23.7805 19.8202 21.6404 19.8202 21.6404C19.8202 21.6404 17.9147 22.7311 16.3959 24.7332C14.8909 26.7353 14.3524 28.8754 14.3524 28.8754Z" fill="#CECAC2"/>
<path d="M13.9382 31.1398C13.9382 31.1398 15.8574 29.7867 17.3348 27.5499C18.8122 25.2993 19.2955 23.0073 19.2955 23.0073C19.2955 23.0073 17.3762 24.3604 15.8989 26.5972C14.4215 28.8478 13.9382 31.1398 13.9382 31.1398Z" fill="#CECAC2"/>
<path d="M13.7035 31.4436C13.7035 31.4436 15.4709 30.0352 16.6997 27.7708C17.9424 25.5202 18.1909 23.2834 18.1909 23.2834C18.1909 23.2834 16.4236 24.6918 15.1947 26.9562C13.9521 29.2068 13.7035 31.4436 13.7035 31.4436Z" fill="#CECAC2"/>
<path d="M12.737 34.4674C12.737 34.4674 14.2972 31.0432 14.9047 29.7453C15.4846 28.4198 17.0172 24.9955 17.0172 24.9955C17.0172 24.9955 16.8654 25.0784 16.6444 25.2165C16.3959 25.3545 16.0645 25.5893 15.6779 25.9206C14.9185 26.5696 13.9658 27.6328 13.3307 29.0273C12.6955 30.4356 12.5298 31.844 12.5575 32.8519C12.5713 33.8599 12.737 34.4674 12.737 34.4674Z" fill="#CECAC2"/>
<path d="M12.9855 35.8066C12.9855 35.8066 13.2616 35.2819 13.6344 34.4811C14.021 33.6665 14.5457 32.6033 15.029 31.4021C15.526 30.2146 15.9126 29.0962 16.2164 28.254C16.5064 27.4117 16.6859 26.8456 16.6859 26.8456C16.6859 26.8456 16.175 27.1356 15.4984 27.7707C14.8219 28.4197 13.9934 29.4276 13.4411 30.7531C12.9026 32.0648 12.7646 33.3765 12.7922 34.3016C12.8198 35.2405 12.9855 35.8066 12.9855 35.8066Z" fill="#CECAC2"/>
<path d="M13.1098 36.8284C13.1098 36.8284 14.7667 35.0473 15.8299 32.4515C16.9068 29.8419 16.9621 27.4118 16.9621 27.4118C16.9621 27.4118 15.3052 29.193 14.242 31.7887C13.1788 34.3983 13.1098 36.8284 13.1098 36.8284Z" fill="#CECAC2"/>
<path d="M15.1256 38.223C15.1256 38.223 16.4235 36.8422 17.0311 34.8264C17.6248 32.8243 17.2796 30.9465 17.2796 30.9465C17.2796 30.9465 15.9817 32.3272 15.3742 34.3431C14.7805 36.359 15.1256 38.223 15.1256 38.223Z" fill="#CECAC2"/>
<path d="M13.9796 40.4874C13.9796 40.4874 15.7055 38.9272 16.893 36.5385C18.0804 34.1498 18.2599 31.8302 18.2599 31.8302C18.2599 31.8302 16.534 33.3904 15.3465 35.7791C14.1729 38.1677 13.9796 40.4874 13.9796 40.4874Z" fill="#CECAC2"/>
<path d="M11.7566 40.874C11.7566 40.874 12.2399 40.8602 12.9579 40.6255C13.662 40.4046 14.6147 39.9075 15.3603 39.0514C16.1197 38.1954 16.4925 37.2013 16.6306 36.4695C16.7687 35.7239 16.7135 35.2544 16.7135 35.2544C16.7135 35.2544 16.3683 35.5858 15.8712 36.0691C15.3741 36.5523 14.7114 37.1875 14.0762 37.9192C13.4273 38.6372 12.8888 39.369 12.4608 39.9213C12.0328 40.4736 11.7566 40.874 11.7566 40.874Z" fill="#CECAC2"/>
<path d="M11.0111 40.5288C11.0111 40.5288 12.9717 39.4518 14.5596 37.4636C16.1474 35.4753 16.7687 33.3214 16.7687 33.3214C16.7687 33.3214 14.8081 34.3984 13.2064 36.3866C11.6186 38.3749 11.0111 40.5288 11.0111 40.5288Z" fill="#CECAC2"/>
<path d="M11.3977 39.3414C11.3977 39.3414 12.7232 39.2447 13.6345 38.3611C14.5458 37.4774 14.6838 36.1519 14.6838 36.1519C14.6838 36.1519 13.3445 36.2485 12.4332 37.1322C11.5358 38.0021 11.3977 39.3414 11.3977 39.3414Z" fill="#CECAC2"/>
<path d="M9.7822 44.1878C9.7822 44.1878 12.0604 43.0694 14.1177 40.9569C16.175 38.8443 17.2244 36.5247 17.2244 36.5247C17.2244 36.5247 14.9323 37.6431 12.875 39.7556C10.8316 41.8681 9.7822 44.1878 9.7822 44.1878Z" fill="#CECAC2"/>
<path d="M10.8591 45.0024C10.8591 45.0024 12.7369 44.1326 14.2558 42.3652C15.7608 40.5979 16.3407 38.5958 16.3407 38.5958C16.3407 38.5958 14.4629 39.4795 12.9441 41.2468C11.4252 43.0142 10.8591 45.0024 10.8591 45.0024Z" fill="#CECAC2"/>
<path d="M11.2596 47.0597C11.2596 47.0597 12.737 46.4798 13.7173 45.1267C14.6838 43.7874 14.7667 42.1995 14.7667 42.1995C14.7667 42.1995 13.2893 42.7794 12.309 44.1326C11.3424 45.4719 11.2596 47.0597 11.2596 47.0597Z" fill="#CECAC2"/>
<path d="M11.3148 49.2689C11.3148 49.2689 12.9855 47.9158 14.1039 45.748C15.2223 43.5941 15.3604 41.4401 15.3604 41.4401C15.3604 41.4401 13.6897 42.8071 12.5713 44.961C11.4529 47.115 11.3148 49.2689 11.3148 49.2689Z" fill="#CECAC2"/>
<path d="M12.0328 52.2099C12.0328 52.2099 13.5792 50.5944 14.4905 48.2195C15.4018 45.8309 15.3327 43.6079 15.3327 43.6079C15.3327 43.6079 13.8001 45.2233 12.8888 47.5982C11.9775 49.9731 12.0328 52.2099 12.0328 52.2099Z" fill="#CECAC2"/>
<path d="M11.7152 57.07C11.7152 57.07 13.0683 55.4822 13.7035 53.2454C14.3524 50.9948 14.0486 48.9513 14.0486 48.9513C14.0486 48.9513 12.6955 50.5253 12.0466 52.7621C11.4114 55.0127 11.7152 57.07 11.7152 57.07Z" fill="#CECAC2"/>
<path d="M12.3503 61.1431C12.3503 61.1431 13.8001 58.9478 14.5595 55.9654C15.3189 52.9968 15.098 50.3596 15.098 50.3596C15.098 50.3596 13.6482 52.5688 12.8888 55.5512C12.1432 58.5197 12.3503 61.1431 12.3503 61.1431Z" fill="#CECAC2"/>
<path d="M15.457 54.2119C15.457 54.2119 13.9796 57.9951 13.0131 62.9658L14.6976 62.9244C14.6424 62.7035 14.601 62.4825 14.5595 62.2616C14.0901 59.7349 14.0763 57.3738 14.2282 55.6341C14.2972 54.778 14.4077 54.0739 14.4905 53.5768C14.5595 53.1073 14.6148 52.8174 14.6148 52.8174C14.6148 52.8174 14.4629 53.0521 14.2282 53.4939C13.9934 53.9358 13.6759 54.5985 13.3859 55.4684C12.806 57.1805 12.3504 59.7625 12.875 62.5654C12.9165 62.8139 12.9717 63.0624 13.0269 63.311L13.952 67.7431L14.6976 63.2696C15.5261 58.2713 15.457 54.2119 15.457 54.2119Z" fill="#CECAC2"/>
<path d="M15.8298 64.6089C15.8298 64.6089 15.4846 64.7469 14.9324 65.0369L15.3742 65.2164C15.5537 64.1808 15.7884 62.3859 15.6503 60.3976C15.4432 57.2219 14.4215 54.709 14.4215 54.709C14.4215 54.709 13.7311 57.3324 13.9382 60.5081C14.0625 62.4963 14.5181 64.2361 14.8357 65.244L15.0152 65.7963L15.2775 65.4373C15.6365 64.9264 15.8298 64.6089 15.8298 64.6089Z" fill="#CECAC2"/>
<path d="M16.1474 66.5971C16.1474 66.5971 16.1612 65.9896 16.1336 65.0645C16.106 64.1394 16.0784 62.9106 15.9817 61.5712C15.8851 60.2457 15.7332 59.0307 15.6227 58.1056C15.5261 57.1943 15.4294 56.5868 15.4294 56.5868C15.4294 56.5868 15.0981 57.0839 14.7667 58.009C14.4491 58.9064 14.1592 60.2319 14.2558 61.6955C14.3663 63.1729 14.8495 64.4432 15.3052 65.2854C15.747 66.1415 16.1474 66.5971 16.1474 66.5971Z" fill="#CECAC2"/>
<path d="M18.1357 66.6109C18.1357 66.6109 18.7018 64.4846 18.329 62.0269C17.97 59.5691 16.824 57.6913 16.824 57.6913C16.824 57.6913 16.2717 59.8177 16.6307 62.2754C16.9897 64.7331 18.1357 66.6109 18.1357 66.6109Z" fill="#CECAC2"/>
<path d="M20.2343 69.0273C20.2343 69.0273 19.972 68.2679 19.6821 67.4532C19.3507 66.5005 18.9917 65.2164 18.6327 63.8219C18.2737 62.4135 17.9837 61.1156 17.8181 60.1215C17.68 59.2655 17.5557 58.4646 17.5557 58.4646C17.5557 58.4646 17.4729 58.6303 17.3624 58.8927C17.2381 59.155 17.0863 59.5692 16.962 60.0801C16.6997 61.1156 16.5616 62.6345 16.962 64.2361C17.3762 65.8378 18.2185 67.1218 18.9365 67.8951C19.3093 68.2817 19.6268 68.5716 19.8615 68.7511C20.0825 68.9168 20.2343 69.0273 20.2343 69.0273Z" fill="#CECAC2"/>
<path d="M20.0273 69.5243C20.0273 69.5243 19.9444 69.0272 19.7925 68.3092C19.6268 67.5912 19.4335 66.6662 19.1298 65.672C18.8398 64.6917 18.4946 63.7942 18.2185 63.1177C17.9561 62.4411 17.7628 61.9716 17.7628 61.9716C17.7628 61.9716 17.5281 62.4135 17.3624 63.1729C17.2106 63.9323 17.1415 65.0369 17.4867 66.1691C17.8319 67.3013 18.4808 68.185 19.0331 68.7373C19.5854 69.2896 20.0273 69.5243 20.0273 69.5243Z" fill="#CECAC2"/>
<path d="M18.6742 68.8063C18.6742 68.8063 18.757 66.2934 17.8319 63.5181C16.9206 60.7428 15.3604 58.7683 15.3604 58.7683C15.3604 58.7683 15.2914 61.2813 16.2027 64.0566C17.1139 66.8318 18.6742 68.8063 18.6742 68.8063Z" fill="#CECAC2"/>
<path d="M21.5185 69.8418C21.5185 69.8418 21.9465 68.4335 21.477 67.0251C21.0214 65.6168 19.8202 64.7469 19.8202 64.7469C19.8202 64.7469 19.3783 66.1552 19.8478 67.5636C20.3172 68.9719 21.5185 69.8418 21.5185 69.8418Z" fill="#CECAC2"/>
</g>
<defs>
<clipPath id="clip0_6_761">
<rect width="80" height="80" fill="white"/>
</clipPath>
</defs>
</svg>
