<svg width="2107" height="2048" viewBox="0 0 2107 2048" fill="none" xmlns="http://www.w3.org/2000/svg">
<circle cx="1083" cy="1024" r="999" fill="#ECECEC" stroke="black" stroke-width="50"/>
<path d="M832.901 669.388L746.284 738.476C728.19 722.625 708.999 711.284 688.711 704.451C668.423 697.619 647.796 694.539 626.832 695.211C605.867 695.883 585.248 700.216 564.976 708.21C544.888 716.056 525.775 727.213 507.637 741.68C474.879 767.809 452.113 799.444 439.34 836.583C426.753 873.575 425.659 913.966 436.059 957.757C446.644 1001.4 470.242 1046.17 506.853 1092.07C543.759 1138.34 582.311 1171.49 622.508 1191.51C662.891 1211.39 702.533 1219.14 741.435 1214.76C780.337 1210.37 815.982 1195.27 848.371 1169.43C866.324 1155.11 881.432 1139.13 893.696 1121.47C905.997 1103.48 914.879 1084.44 920.343 1064.33C925.808 1044.23 927.538 1023.62 925.535 1002.5C923.57 981.054 917.112 959.859 906.161 938.916L992.999 870.106C1010.66 901.743 1022.21 934.629 1027.63 968.763C1033.09 1002.56 1032.25 1036.25 1025.1 1069.81C1017.99 1103.03 1004.89 1134.83 985.806 1165.2C966.721 1195.56 941.539 1223.22 910.261 1248.16C861.03 1287.43 807.866 1310.76 750.769 1318.15C693.524 1325.35 636.378 1315.96 579.329 1290C522.465 1263.89 469.897 1220.57 421.624 1160.05C373.203 1099.35 342.752 1038.39 330.27 977.181C317.64 915.788 321.273 858.078 341.169 804.053C360.917 749.842 395.314 703.176 444.36 664.056C474.528 639.993 506.129 621.904 539.163 609.787C572.235 597.338 605.871 591.102 640.071 591.077C674.123 590.868 707.519 597.239 740.259 610.189C772.85 622.955 803.731 642.688 832.901 669.388Z" fill="black"/>
<path d="M1371.39 1175.91L1325.78 1118.72L1275.79 442.706L974.295 683.185L915.393 609.339L1321.83 285.157L1367.44 342.346L1417.43 1018.36L1718.92 777.879L1777.83 851.726L1371.39 1175.91Z" fill="black"/>
<line x1="653.791" y1="1603.14" x2="1740.03" y2="1353.27" stroke="black" stroke-width="100"/>
</svg>
